<?xml version="1.0" standalone="yes"?><svg version="1.1" xmlns="http://www.w3.org/2000/svg" xmlns:xlink="http://www.w3.org/1999/xlink" xmlns:ev="http://www.w3.org/2001/xml-events" width="363" height="363" shape-rendering="crispEdges"><rect width="11" height="11" x="0" y="0" fill="#000"/><rect width="11" height="11" x="11" y="0" fill="#000"/><rect width="11" height="11" x="22" y="0" fill="#000"/><rect width="11" height="11" x="33" y="0" fill="#000"/><rect width="11" height="11" x="44" y="0" fill="#000"/><rect width="11" height="11" x="55" y="0" fill="#000"/><rect width="11" height="11" x="66" y="0" fill="#000"/><rect width="11" height="11" x="99" y="0" fill="#000"/><rect width="11" height="11" x="110" y="0" fill="#000"/><rect width="11" height="11" x="154" y="0" fill="#000"/><rect width="11" height="11" x="165" y="0" fill="#000"/><rect width="11" height="11" x="187" y="0" fill="#000"/><rect width="11" height="11" x="231" y="0" fill="#000"/><rect width="11" height="11" x="242" y="0" fill="#000"/><rect width="11" height="11" x="286" y="0" fill="#000"/><rect width="11" height="11" x="297" y="0" fill="#000"/><rect width="11" height="11" x="308" y="0" fill="#000"/><rect width="11" height="11" x="319" y="0" fill="#000"/><rect width="11" height="11" x="330" y="0" fill="#000"/><rect width="11" height="11" x="341" y="0" fill="#000"/><rect width="11" height="11" x="352" y="0" fill="#000"/><rect width="11" height="11" x="0" y="11" fill="#000"/><rect width="11" height="11" x="66" y="11" fill="#000"/><rect width="11" height="11" x="99" y="11" fill="#000"/><rect width="11" height="11" x="110" y="11" fill="#000"/><rect width="11" height="11" x="121" y="11" fill="#000"/><rect width="11" height="11" x="154" y="11" fill="#000"/><rect width="11" height="11" x="176" y="11" fill="#000"/><rect width="11" height="11" x="231" y="11" fill="#000"/><rect width="11" height="11" x="264" y="11" fill="#000"/><rect width="11" height="11" x="286" y="11" fill="#000"/><rect width="11" height="11" x="352" y="11" fill="#000"/><rect width="11" height="11" x="0" y="22" fill="#000"/><rect width="11" height="11" x="22" y="22" fill="#000"/><rect width="11" height="11" x="33" y="22" fill="#000"/><rect width="11" height="11" x="44" y="22" fill="#000"/><rect width="11" height="11" x="66" y="22" fill="#000"/><rect width="11" height="11" x="88" y="22" fill="#000"/><rect width="11" height="11" x="99" y="22" fill="#000"/><rect width="11" height="11" x="121" y="22" fill="#000"/><rect width="11" height="11" x="132" y="22" fill="#000"/><rect width="11" height="11" x="143" y="22" fill="#000"/><rect width="11" height="11" x="154" y="22" fill="#000"/><rect width="11" height="11" x="165" y="22" fill="#000"/><rect width="11" height="11" x="198" y="22" fill="#000"/><rect width="11" height="11" x="231" y="22" fill="#000"/><rect width="11" height="11" x="242" y="22" fill="#000"/><rect width="11" height="11" x="253" y="22" fill="#000"/><rect width="11" height="11" x="286" y="22" fill="#000"/><rect width="11" height="11" x="308" y="22" fill="#000"/><rect width="11" height="11" x="319" y="22" fill="#000"/><rect width="11" height="11" x="330" y="22" fill="#000"/><rect width="11" height="11" x="352" y="22" fill="#000"/><rect width="11" height="11" x="0" y="33" fill="#000"/><rect width="11" height="11" x="22" y="33" fill="#000"/><rect width="11" height="11" x="33" y="33" fill="#000"/><rect width="11" height="11" x="44" y="33" fill="#000"/><rect width="11" height="11" x="66" y="33" fill="#000"/><rect width="11" height="11" x="88" y="33" fill="#000"/><rect width="11" height="11" x="110" y="33" fill="#000"/><rect width="11" height="11" x="121" y="33" fill="#000"/><rect width="11" height="11" x="132" y="33" fill="#000"/><rect width="11" height="11" x="154" y="33" fill="#000"/><rect width="11" height="11" x="165" y="33" fill="#000"/><rect width="11" height="11" x="176" y="33" fill="#000"/><rect width="11" height="11" x="209" y="33" fill="#000"/><rect width="11" height="11" x="220" y="33" fill="#000"/><rect width="11" height="11" x="231" y="33" fill="#000"/><rect width="11" height="11" x="253" y="33" fill="#000"/><rect width="11" height="11" x="264" y="33" fill="#000"/><rect width="11" height="11" x="286" y="33" fill="#000"/><rect width="11" height="11" x="308" y="33" fill="#000"/><rect width="11" height="11" x="319" y="33" fill="#000"/><rect width="11" height="11" x="330" y="33" fill="#000"/><rect width="11" height="11" x="352" y="33" fill="#000"/><rect width="11" height="11" x="0" y="44" fill="#000"/><rect width="11" height="11" x="22" y="44" fill="#000"/><rect width="11" height="11" x="33" y="44" fill="#000"/><rect width="11" height="11" x="44" y="44" fill="#000"/><rect width="11" height="11" x="66" y="44" fill="#000"/><rect width="11" height="11" x="110" y="44" fill="#000"/><rect width="11" height="11" x="121" y="44" fill="#000"/><rect width="11" height="11" x="132" y="44" fill="#000"/><rect width="11" height="11" x="198" y="44" fill="#000"/><rect width="11" height="11" x="209" y="44" fill="#000"/><rect width="11" height="11" x="220" y="44" fill="#000"/><rect width="11" height="11" x="231" y="44" fill="#000"/><rect width="11" height="11" x="286" y="44" fill="#000"/><rect width="11" height="11" x="308" y="44" fill="#000"/><rect width="11" height="11" x="319" y="44" fill="#000"/><rect width="11" height="11" x="330" y="44" fill="#000"/><rect width="11" height="11" x="352" y="44" fill="#000"/><rect width="11" height="11" x="0" y="55" fill="#000"/><rect width="11" height="11" x="66" y="55" fill="#000"/><rect width="11" height="11" x="143" y="55" fill="#000"/><rect width="11" height="11" x="165" y="55" fill="#000"/><rect width="11" height="11" x="198" y="55" fill="#000"/><rect width="11" height="11" x="253" y="55" fill="#000"/><rect width="11" height="11" x="286" y="55" fill="#000"/><rect width="11" height="11" x="352" y="55" fill="#000"/><rect width="11" height="11" x="0" y="66" fill="#000"/><rect width="11" height="11" x="11" y="66" fill="#000"/><rect width="11" height="11" x="22" y="66" fill="#000"/><rect width="11" height="11" x="33" y="66" fill="#000"/><rect width="11" height="11" x="44" y="66" fill="#000"/><rect width="11" height="11" x="55" y="66" fill="#000"/><rect width="11" height="11" x="66" y="66" fill="#000"/><rect width="11" height="11" x="88" y="66" fill="#000"/><rect width="11" height="11" x="110" y="66" fill="#000"/><rect width="11" height="11" x="132" y="66" fill="#000"/><rect width="11" height="11" x="154" y="66" fill="#000"/><rect width="11" height="11" x="176" y="66" fill="#000"/><rect width="11" height="11" x="198" y="66" fill="#000"/><rect width="11" height="11" x="220" y="66" fill="#000"/><rect width="11" height="11" x="242" y="66" fill="#000"/><rect width="11" height="11" x="264" y="66" fill="#000"/><rect width="11" height="11" x="286" y="66" fill="#000"/><rect width="11" height="11" x="297" y="66" fill="#000"/><rect width="11" height="11" x="308" y="66" fill="#000"/><rect width="11" height="11" x="319" y="66" fill="#000"/><rect width="11" height="11" x="330" y="66" fill="#000"/><rect width="11" height="11" x="341" y="66" fill="#000"/><rect width="11" height="11" x="352" y="66" fill="#000"/><rect width="11" height="11" x="99" y="77" fill="#000"/><rect width="11" height="11" x="110" y="77" fill="#000"/><rect width="11" height="11" x="132" y="77" fill="#000"/><rect width="11" height="11" x="143" y="77" fill="#000"/><rect width="11" height="11" x="154" y="77" fill="#000"/><rect width="11" height="11" x="198" y="77" fill="#000"/><rect width="11" height="11" x="220" y="77" fill="#000"/><rect width="11" height="11" x="242" y="77" fill="#000"/><rect width="11" height="11" x="253" y="77" fill="#000"/><rect width="11" height="11" x="33" y="88" fill="#000"/><rect width="11" height="11" x="44" y="88" fill="#000"/><rect width="11" height="11" x="66" y="88" fill="#000"/><rect width="11" height="11" x="77" y="88" fill="#000"/><rect width="11" height="11" x="132" y="88" fill="#000"/><rect width="11" height="11" x="165" y="88" fill="#000"/><rect width="11" height="11" x="176" y="88" fill="#000"/><rect width="11" height="11" x="209" y="88" fill="#000"/><rect width="11" height="11" x="220" y="88" fill="#000"/><rect width="11" height="11" x="253" y="88" fill="#000"/><rect width="11" height="11" x="264" y="88" fill="#000"/><rect width="11" height="11" x="319" y="88" fill="#000"/><rect width="11" height="11" x="330" y="88" fill="#000"/><rect width="11" height="11" x="22" y="99" fill="#000"/><rect width="11" height="11" x="44" y="99" fill="#000"/><rect width="11" height="11" x="55" y="99" fill="#000"/><rect width="11" height="11" x="99" y="99" fill="#000"/><rect width="11" height="11" x="132" y="99" fill="#000"/><rect width="11" height="11" x="165" y="99" fill="#000"/><rect width="11" height="11" x="176" y="99" fill="#000"/><rect width="11" height="11" x="209" y="99" fill="#000"/><rect width="11" height="11" x="231" y="99" fill="#000"/><rect width="11" height="11" x="253" y="99" fill="#000"/><rect width="11" height="11" x="297" y="99" fill="#000"/><rect width="11" height="11" x="308" y="99" fill="#000"/><rect width="11" height="11" x="330" y="99" fill="#000"/><rect width="11" height="11" x="341" y="99" fill="#000"/><rect width="11" height="11" x="11" y="110" fill="#000"/><rect width="11" height="11" x="66" y="110" fill="#000"/><rect width="11" height="11" x="110" y="110" fill="#000"/><rect width="11" height="11" x="132" y="110" fill="#000"/><rect width="11" height="11" x="143" y="110" fill="#000"/><rect width="11" height="11" x="154" y="110" fill="#000"/><rect width="11" height="11" x="165" y="110" fill="#000"/><rect width="11" height="11" x="231" y="110" fill="#000"/><rect width="11" height="11" x="242" y="110" fill="#000"/><rect width="11" height="11" x="253" y="110" fill="#000"/><rect width="11" height="11" x="308" y="110" fill="#000"/><rect width="11" height="11" x="319" y="110" fill="#000"/><rect width="11" height="11" x="352" y="110" fill="#000"/><rect width="11" height="11" x="44" y="121" fill="#000"/><rect width="11" height="11" x="55" y="121" fill="#000"/><rect width="11" height="11" x="110" y="121" fill="#000"/><rect width="11" height="11" x="132" y="121" fill="#000"/><rect width="11" height="11" x="143" y="121" fill="#000"/><rect width="11" height="11" x="165" y="121" fill="#000"/><rect width="11" height="11" x="176" y="121" fill="#000"/><rect width="11" height="11" x="187" y="121" fill="#000"/><rect width="11" height="11" x="198" y="121" fill="#000"/><rect width="11" height="11" x="220" y="121" fill="#000"/><rect width="11" height="11" x="275" y="121" fill="#000"/><rect width="11" height="11" x="297" y="121" fill="#000"/><rect width="11" height="11" x="308" y="121" fill="#000"/><rect width="11" height="11" x="330" y="121" fill="#000"/><rect width="11" height="11" x="341" y="121" fill="#000"/><rect width="11" height="11" x="352" y="121" fill="#000"/><rect width="11" height="11" x="66" y="132" fill="#000"/><rect width="11" height="11" x="99" y="132" fill="#000"/><rect width="11" height="11" x="110" y="132" fill="#000"/><rect width="11" height="11" x="121" y="132" fill="#000"/><rect width="11" height="11" x="132" y="132" fill="#000"/><rect width="11" height="11" x="154" y="132" fill="#000"/><rect width="11" height="11" x="165" y="132" fill="#000"/><rect width="11" height="11" x="220" y="132" fill="#000"/><rect width="11" height="11" x="231" y="132" fill="#000"/><rect width="11" height="11" x="242" y="132" fill="#000"/><rect width="11" height="11" x="253" y="132" fill="#000"/><rect width="11" height="11" x="286" y="132" fill="#000"/><rect width="11" height="11" x="297" y="132" fill="#000"/><rect width="11" height="11" x="319" y="132" fill="#000"/><rect width="11" height="11" x="352" y="132" fill="#000"/><rect width="11" height="11" x="33" y="143" fill="#000"/><rect width="11" height="11" x="77" y="143" fill="#000"/><rect width="11" height="11" x="88" y="143" fill="#000"/><rect width="11" height="11" x="132" y="143" fill="#000"/><rect width="11" height="11" x="143" y="143" fill="#000"/><rect width="11" height="11" x="154" y="143" fill="#000"/><rect width="11" height="11" x="165" y="143" fill="#000"/><rect width="11" height="11" x="209" y="143" fill="#000"/><rect width="11" height="11" x="220" y="143" fill="#000"/><rect width="11" height="11" x="231" y="143" fill="#000"/><rect width="11" height="11" x="253" y="143" fill="#000"/><rect width="11" height="11" x="275" y="143" fill="#000"/><rect width="11" height="11" x="319" y="143" fill="#000"/><rect width="11" height="11" x="341" y="143" fill="#000"/><rect width="11" height="11" x="11" y="154" fill="#000"/><rect width="11" height="11" x="55" y="154" fill="#000"/><rect width="11" height="11" x="66" y="154" fill="#000"/><rect width="11" height="11" x="88" y="154" fill="#000"/><rect width="11" height="11" x="99" y="154" fill="#000"/><rect width="11" height="11" x="121" y="154" fill="#000"/><rect width="11" height="11" x="132" y="154" fill="#000"/><rect width="11" height="11" x="165" y="154" fill="#000"/><rect width="11" height="11" x="187" y="154" fill="#000"/><rect width="11" height="11" x="198" y="154" fill="#000"/><rect width="11" height="11" x="231" y="154" fill="#000"/><rect width="11" height="11" x="242" y="154" fill="#000"/><rect width="11" height="11" x="308" y="154" fill="#000"/><rect width="11" height="11" x="330" y="154" fill="#000"/><rect width="11" height="11" x="33" y="165" fill="#000"/><rect width="11" height="11" x="44" y="165" fill="#000"/><rect width="11" height="11" x="55" y="165" fill="#000"/><rect width="11" height="11" x="77" y="165" fill="#000"/><rect width="11" height="11" x="121" y="165" fill="#000"/><rect width="11" height="11" x="143" y="165" fill="#000"/><rect width="11" height="11" x="176" y="165" fill="#000"/><rect width="11" height="11" x="198" y="165" fill="#000"/><rect width="11" height="11" x="220" y="165" fill="#000"/><rect width="11" height="11" x="286" y="165" fill="#000"/><rect width="11" height="11" x="319" y="165" fill="#000"/><rect width="11" height="11" x="330" y="165" fill="#000"/><rect width="11" height="11" x="341" y="165" fill="#000"/><rect width="11" height="11" x="352" y="165" fill="#000"/><rect width="11" height="11" x="0" y="176" fill="#000"/><rect width="11" height="11" x="11" y="176" fill="#000"/><rect width="11" height="11" x="33" y="176" fill="#000"/><rect width="11" height="11" x="66" y="176" fill="#000"/><rect width="11" height="11" x="77" y="176" fill="#000"/><rect width="11" height="11" x="99" y="176" fill="#000"/><rect width="11" height="11" x="132" y="176" fill="#000"/><rect width="11" height="11" x="143" y="176" fill="#000"/><rect width="11" height="11" x="165" y="176" fill="#000"/><rect width="11" height="11" x="198" y="176" fill="#000"/><rect width="11" height="11" x="242" y="176" fill="#000"/><rect width="11" height="11" x="253" y="176" fill="#000"/><rect width="11" height="11" x="264" y="176" fill="#000"/><rect width="11" height="11" x="275" y="176" fill="#000"/><rect width="11" height="11" x="286" y="176" fill="#000"/><rect width="11" height="11" x="308" y="176" fill="#000"/><rect width="11" height="11" x="319" y="176" fill="#000"/><rect width="11" height="11" x="352" y="176" fill="#000"/><rect width="11" height="11" x="0" y="187" fill="#000"/><rect width="11" height="11" x="55" y="187" fill="#000"/><rect width="11" height="11" x="77" y="187" fill="#000"/><rect width="11" height="11" x="110" y="187" fill="#000"/><rect width="11" height="11" x="132" y="187" fill="#000"/><rect width="11" height="11" x="187" y="187" fill="#000"/><rect width="11" height="11" x="220" y="187" fill="#000"/><rect width="11" height="11" x="231" y="187" fill="#000"/><rect width="11" height="11" x="242" y="187" fill="#000"/><rect width="11" height="11" x="297" y="187" fill="#000"/><rect width="11" height="11" x="308" y="187" fill="#000"/><rect width="11" height="11" x="352" y="187" fill="#000"/><rect width="11" height="11" x="11" y="198" fill="#000"/><rect width="11" height="11" x="33" y="198" fill="#000"/><rect width="11" height="11" x="66" y="198" fill="#000"/><rect width="11" height="11" x="99" y="198" fill="#000"/><rect width="11" height="11" x="121" y="198" fill="#000"/><rect width="11" height="11" x="132" y="198" fill="#000"/><rect width="11" height="11" x="176" y="198" fill="#000"/><rect width="11" height="11" x="209" y="198" fill="#000"/><rect width="11" height="11" x="231" y="198" fill="#000"/><rect width="11" height="11" x="242" y="198" fill="#000"/><rect width="11" height="11" x="253" y="198" fill="#000"/><rect width="11" height="11" x="264" y="198" fill="#000"/><rect width="11" height="11" x="308" y="198" fill="#000"/><rect width="11" height="11" x="319" y="198" fill="#000"/><rect width="11" height="11" x="330" y="198" fill="#000"/><rect width="11" height="11" x="352" y="198" fill="#000"/><rect width="11" height="11" x="0" y="209" fill="#000"/><rect width="11" height="11" x="44" y="209" fill="#000"/><rect width="11" height="11" x="55" y="209" fill="#000"/><rect width="11" height="11" x="110" y="209" fill="#000"/><rect width="11" height="11" x="121" y="209" fill="#000"/><rect width="11" height="11" x="176" y="209" fill="#000"/><rect width="11" height="11" x="187" y="209" fill="#000"/><rect width="11" height="11" x="198" y="209" fill="#000"/><rect width="11" height="11" x="220" y="209" fill="#000"/><rect width="11" height="11" x="275" y="209" fill="#000"/><rect width="11" height="11" x="308" y="209" fill="#000"/><rect width="11" height="11" x="319" y="209" fill="#000"/><rect width="11" height="11" x="330" y="209" fill="#000"/><rect width="11" height="11" x="352" y="209" fill="#000"/><rect width="11" height="11" x="22" y="220" fill="#000"/><rect width="11" height="11" x="33" y="220" fill="#000"/><rect width="11" height="11" x="66" y="220" fill="#000"/><rect width="11" height="11" x="88" y="220" fill="#000"/><rect width="11" height="11" x="99" y="220" fill="#000"/><rect width="11" height="11" x="165" y="220" fill="#000"/><rect width="11" height="11" x="209" y="220" fill="#000"/><rect width="11" height="11" x="220" y="220" fill="#000"/><rect width="11" height="11" x="264" y="220" fill="#000"/><rect width="11" height="11" x="341" y="220" fill="#000"/><rect width="11" height="11" x="0" y="231" fill="#000"/><rect width="11" height="11" x="11" y="231" fill="#000"/><rect width="11" height="11" x="33" y="231" fill="#000"/><rect width="11" height="11" x="44" y="231" fill="#000"/><rect width="11" height="11" x="55" y="231" fill="#000"/><rect width="11" height="11" x="77" y="231" fill="#000"/><rect width="11" height="11" x="121" y="231" fill="#000"/><rect width="11" height="11" x="165" y="231" fill="#000"/><rect width="11" height="11" x="176" y="231" fill="#000"/><rect width="11" height="11" x="198" y="231" fill="#000"/><rect width="11" height="11" x="209" y="231" fill="#000"/><rect width="11" height="11" x="242" y="231" fill="#000"/><rect width="11" height="11" x="253" y="231" fill="#000"/><rect width="11" height="11" x="297" y="231" fill="#000"/><rect width="11" height="11" x="308" y="231" fill="#000"/><rect width="11" height="11" x="341" y="231" fill="#000"/><rect width="11" height="11" x="0" y="242" fill="#000"/><rect width="11" height="11" x="22" y="242" fill="#000"/><rect width="11" height="11" x="44" y="242" fill="#000"/><rect width="11" height="11" x="55" y="242" fill="#000"/><rect width="11" height="11" x="66" y="242" fill="#000"/><rect width="11" height="11" x="99" y="242" fill="#000"/><rect width="11" height="11" x="110" y="242" fill="#000"/><rect width="11" height="11" x="121" y="242" fill="#000"/><rect width="11" height="11" x="132" y="242" fill="#000"/><rect width="11" height="11" x="154" y="242" fill="#000"/><rect width="11" height="11" x="165" y="242" fill="#000"/><rect width="11" height="11" x="176" y="242" fill="#000"/><rect width="11" height="11" x="198" y="242" fill="#000"/><rect width="11" height="11" x="220" y="242" fill="#000"/><rect width="11" height="11" x="231" y="242" fill="#000"/><rect width="11" height="11" x="242" y="242" fill="#000"/><rect width="11" height="11" x="253" y="242" fill="#000"/><rect width="11" height="11" x="308" y="242" fill="#000"/><rect width="11" height="11" x="319" y="242" fill="#000"/><rect width="11" height="11" x="341" y="242" fill="#000"/><rect width="11" height="11" x="352" y="242" fill="#000"/><rect width="11" height="11" x="0" y="253" fill="#000"/><rect width="11" height="11" x="77" y="253" fill="#000"/><rect width="11" height="11" x="99" y="253" fill="#000"/><rect width="11" height="11" x="121" y="253" fill="#000"/><rect width="11" height="11" x="143" y="253" fill="#000"/><rect width="11" height="11" x="209" y="253" fill="#000"/><rect width="11" height="11" x="242" y="253" fill="#000"/><rect width="11" height="11" x="264" y="253" fill="#000"/><rect width="11" height="11" x="308" y="253" fill="#000"/><rect width="11" height="11" x="330" y="253" fill="#000"/><rect width="11" height="11" x="341" y="253" fill="#000"/><rect width="11" height="11" x="0" y="264" fill="#000"/><rect width="11" height="11" x="11" y="264" fill="#000"/><rect width="11" height="11" x="22" y="264" fill="#000"/><rect width="11" height="11" x="44" y="264" fill="#000"/><rect width="11" height="11" x="55" y="264" fill="#000"/><rect width="11" height="11" x="66" y="264" fill="#000"/><rect width="11" height="11" x="77" y="264" fill="#000"/><rect width="11" height="11" x="88" y="264" fill="#000"/><rect width="11" height="11" x="110" y="264" fill="#000"/><rect width="11" height="11" x="132" y="264" fill="#000"/><rect width="11" height="11" x="143" y="264" fill="#000"/><rect width="11" height="11" x="176" y="264" fill="#000"/><rect width="11" height="11" x="198" y="264" fill="#000"/><rect width="11" height="11" x="209" y="264" fill="#000"/><rect width="11" height="11" x="220" y="264" fill="#000"/><rect width="11" height="11" x="253" y="264" fill="#000"/><rect width="11" height="11" x="264" y="264" fill="#000"/><rect width="11" height="11" x="275" y="264" fill="#000"/><rect width="11" height="11" x="286" y="264" fill="#000"/><rect width="11" height="11" x="297" y="264" fill="#000"/><rect width="11" height="11" x="308" y="264" fill="#000"/><rect width="11" height="11" x="319" y="264" fill="#000"/><rect width="11" height="11" x="352" y="264" fill="#000"/><rect width="11" height="11" x="88" y="275" fill="#000"/><rect width="11" height="11" x="99" y="275" fill="#000"/><rect width="11" height="11" x="110" y="275" fill="#000"/><rect width="11" height="11" x="121" y="275" fill="#000"/><rect width="11" height="11" x="132" y="275" fill="#000"/><rect width="11" height="11" x="154" y="275" fill="#000"/><rect width="11" height="11" x="209" y="275" fill="#000"/><rect width="11" height="11" x="231" y="275" fill="#000"/><rect width="11" height="11" x="264" y="275" fill="#000"/><rect width="11" height="11" x="308" y="275" fill="#000"/><rect width="11" height="11" x="319" y="275" fill="#000"/><rect width="11" height="11" x="341" y="275" fill="#000"/><rect width="11" height="11" x="0" y="286" fill="#000"/><rect width="11" height="11" x="11" y="286" fill="#000"/><rect width="11" height="11" x="22" y="286" fill="#000"/><rect width="11" height="11" x="33" y="286" fill="#000"/><rect width="11" height="11" x="44" y="286" fill="#000"/><rect width="11" height="11" x="55" y="286" fill="#000"/><rect width="11" height="11" x="66" y="286" fill="#000"/><rect width="11" height="11" x="88" y="286" fill="#000"/><rect width="11" height="11" x="99" y="286" fill="#000"/><rect width="11" height="11" x="110" y="286" fill="#000"/><rect width="11" height="11" x="121" y="286" fill="#000"/><rect width="11" height="11" x="143" y="286" fill="#000"/><rect width="11" height="11" x="154" y="286" fill="#000"/><rect width="11" height="11" x="165" y="286" fill="#000"/><rect width="11" height="11" x="176" y="286" fill="#000"/><rect width="11" height="11" x="253" y="286" fill="#000"/><rect width="11" height="11" x="264" y="286" fill="#000"/><rect width="11" height="11" x="286" y="286" fill="#000"/><rect width="11" height="11" x="308" y="286" fill="#000"/><rect width="11" height="11" x="319" y="286" fill="#000"/><rect width="11" height="11" x="330" y="286" fill="#000"/><rect width="11" height="11" x="0" y="297" fill="#000"/><rect width="11" height="11" x="66" y="297" fill="#000"/><rect width="11" height="11" x="99" y="297" fill="#000"/><rect width="11" height="11" x="110" y="297" fill="#000"/><rect width="11" height="11" x="121" y="297" fill="#000"/><rect width="11" height="11" x="132" y="297" fill="#000"/><rect width="11" height="11" x="154" y="297" fill="#000"/><rect width="11" height="11" x="165" y="297" fill="#000"/><rect width="11" height="11" x="176" y="297" fill="#000"/><rect width="11" height="11" x="187" y="297" fill="#000"/><rect width="11" height="11" x="198" y="297" fill="#000"/><rect width="11" height="11" x="209" y="297" fill="#000"/><rect width="11" height="11" x="231" y="297" fill="#000"/><rect width="11" height="11" x="242" y="297" fill="#000"/><rect width="11" height="11" x="253" y="297" fill="#000"/><rect width="11" height="11" x="264" y="297" fill="#000"/><rect width="11" height="11" x="308" y="297" fill="#000"/><rect width="11" height="11" x="319" y="297" fill="#000"/><rect width="11" height="11" x="330" y="297" fill="#000"/><rect width="11" height="11" x="0" y="308" fill="#000"/><rect width="11" height="11" x="22" y="308" fill="#000"/><rect width="11" height="11" x="33" y="308" fill="#000"/><rect width="11" height="11" x="44" y="308" fill="#000"/><rect width="11" height="11" x="66" y="308" fill="#000"/><rect width="11" height="11" x="88" y="308" fill="#000"/><rect width="11" height="11" x="99" y="308" fill="#000"/><rect width="11" height="11" x="110" y="308" fill="#000"/><rect width="11" height="11" x="121" y="308" fill="#000"/><rect width="11" height="11" x="165" y="308" fill="#000"/><rect width="11" height="11" x="198" y="308" fill="#000"/><rect width="11" height="11" x="231" y="308" fill="#000"/><rect width="11" height="11" x="242" y="308" fill="#000"/><rect width="11" height="11" x="253" y="308" fill="#000"/><rect width="11" height="11" x="264" y="308" fill="#000"/><rect width="11" height="11" x="275" y="308" fill="#000"/><rect width="11" height="11" x="286" y="308" fill="#000"/><rect width="11" height="11" x="297" y="308" fill="#000"/><rect width="11" height="11" x="308" y="308" fill="#000"/><rect width="11" height="11" x="319" y="308" fill="#000"/><rect width="11" height="11" x="341" y="308" fill="#000"/><rect width="11" height="11" x="0" y="319" fill="#000"/><rect width="11" height="11" x="22" y="319" fill="#000"/><rect width="11" height="11" x="33" y="319" fill="#000"/><rect width="11" height="11" x="44" y="319" fill="#000"/><rect width="11" height="11" x="66" y="319" fill="#000"/><rect width="11" height="11" x="88" y="319" fill="#000"/><rect width="11" height="11" x="143" y="319" fill="#000"/><rect width="11" height="11" x="176" y="319" fill="#000"/><rect width="11" height="11" x="187" y="319" fill="#000"/><rect width="11" height="11" x="198" y="319" fill="#000"/><rect width="11" height="11" x="231" y="319" fill="#000"/><rect width="11" height="11" x="242" y="319" fill="#000"/><rect width="11" height="11" x="253" y="319" fill="#000"/><rect width="11" height="11" x="264" y="319" fill="#000"/><rect width="11" height="11" x="275" y="319" fill="#000"/><rect width="11" height="11" x="319" y="319" fill="#000"/><rect width="11" height="11" x="330" y="319" fill="#000"/><rect width="11" height="11" x="352" y="319" fill="#000"/><rect width="11" height="11" x="0" y="330" fill="#000"/><rect width="11" height="11" x="22" y="330" fill="#000"/><rect width="11" height="11" x="33" y="330" fill="#000"/><rect width="11" height="11" x="44" y="330" fill="#000"/><rect width="11" height="11" x="66" y="330" fill="#000"/><rect width="11" height="11" x="132" y="330" fill="#000"/><rect width="11" height="11" x="143" y="330" fill="#000"/><rect width="11" height="11" x="176" y="330" fill="#000"/><rect width="11" height="11" x="242" y="330" fill="#000"/><rect width="11" height="11" x="253" y="330" fill="#000"/><rect width="11" height="11" x="264" y="330" fill="#000"/><rect width="11" height="11" x="308" y="330" fill="#000"/><rect width="11" height="11" x="319" y="330" fill="#000"/><rect width="11" height="11" x="341" y="330" fill="#000"/><rect width="11" height="11" x="352" y="330" fill="#000"/><rect width="11" height="11" x="0" y="341" fill="#000"/><rect width="11" height="11" x="66" y="341" fill="#000"/><rect width="11" height="11" x="110" y="341" fill="#000"/><rect width="11" height="11" x="121" y="341" fill="#000"/><rect width="11" height="11" x="132" y="341" fill="#000"/><rect width="11" height="11" x="143" y="341" fill="#000"/><rect width="11" height="11" x="176" y="341" fill="#000"/><rect width="11" height="11" x="209" y="341" fill="#000"/><rect width="11" height="11" x="220" y="341" fill="#000"/><rect width="11" height="11" x="275" y="341" fill="#000"/><rect width="11" height="11" x="286" y="341" fill="#000"/><rect width="11" height="11" x="297" y="341" fill="#000"/><rect width="11" height="11" x="319" y="341" fill="#000"/><rect width="11" height="11" x="330" y="341" fill="#000"/><rect width="11" height="11" x="341" y="341" fill="#000"/><rect width="11" height="11" x="352" y="341" fill="#000"/><rect width="11" height="11" x="0" y="352" fill="#000"/><rect width="11" height="11" x="11" y="352" fill="#000"/><rect width="11" height="11" x="22" y="352" fill="#000"/><rect width="11" height="11" x="33" y="352" fill="#000"/><rect width="11" height="11" x="44" y="352" fill="#000"/><rect width="11" height="11" x="55" y="352" fill="#000"/><rect width="11" height="11" x="66" y="352" fill="#000"/><rect width="11" height="11" x="110" y="352" fill="#000"/><rect width="11" height="11" x="121" y="352" fill="#000"/><rect width="11" height="11" x="132" y="352" fill="#000"/><rect width="11" height="11" x="143" y="352" fill="#000"/><rect width="11" height="11" x="176" y="352" fill="#000"/><rect width="11" height="11" x="198" y="352" fill="#000"/><rect width="11" height="11" x="253" y="352" fill="#000"/><rect width="11" height="11" x="264" y="352" fill="#000"/><rect width="11" height="11" x="275" y="352" fill="#000"/><rect width="11" height="11" x="286" y="352" fill="#000"/><rect width="11" height="11" x="297" y="352" fill="#000"/><rect width="11" height="11" x="319" y="352" fill="#000"/></svg>